<svg width="64" height="64" viewBox="0 0 64 64" fill="none" xmlns="http://www.w3.org/2000/svg">
<path fill-rule="evenodd" clip-rule="evenodd" d="M55 9H10V55H55V9ZM41.0543 25.1614C42.0928 25.0394 43.0805 24.7678 44 24.3662C43.3105 25.3813 42.4428 26.2674 41.4377 26.983C41.4484 27.1996 41.4533 27.417 41.4533 27.636C41.4533 34.3073 36.2944 42 26.8615 42C23.9652 42 21.27 41.1636 19 39.7307C19.4014 39.7784 19.8103 39.8027 20.2241 39.8027C22.6262 39.8027 24.8378 38.9953 26.593 37.6409C24.3495 37.5996 22.4554 36.1401 21.8028 34.1351C22.1164 34.1932 22.4374 34.224 22.7682 34.224C23.2362 34.224 23.6885 34.1632 24.1195 34.047C21.7732 33.5831 20.0057 31.5433 20.0057 29.0971V29.0333C20.7178 29.4232 21.5145 29.6396 22.329 29.6645C20.9531 28.7593 20.0476 27.2142 20.0476 25.4629C20.0476 24.5376 20.3004 23.6704 20.7421 22.9245C23.2715 25.9785 27.0503 27.9884 31.3127 28.1992C31.2258 27.8291 31.1806 27.4436 31.1806 27.0484C31.1806 24.2596 33.4769 22 36.3084 22C37.7835 22 39.1169 22.6125 40.0519 23.5937C41.2009 23.3715 42.3027 22.9571 43.3094 22.3685C42.9261 23.5467 42.1142 24.5367 41.0543 25.1614Z" fill="black"/>
</svg>
